<?xml version="1.0" standalone="no"?>
<!DOCTYPE svg PUBLIC "-//W3C//DTD SVG 20010904//EN"
 "http://www.w3.org/TR/2001/REC-SVG-20010904/DTD/svg10.dtd">
<svg version="1.0" xmlns="http://www.w3.org/2000/svg"
 width="1076.000000pt" height="1076.000000pt" viewBox="0 0 1076.000000 1076.000000"
 preserveAspectRatio="xMidYMid meet">
<metadata>
Created by potrace 1.14, written by Peter Selinger 2001-2017
</metadata>
<g transform="translate(0.000000,1076.000000) scale(0.100000,-0.100000)"
fill="#000000" stroke="none">
<path d="M5228 10705 c-2 -1 -48 -5 -103 -9 -55 -4 -118 -9 -140 -11 -22 -3
-55 -6 -72 -7 -18 -2 -33 -7 -33 -11 0 -5 -4 -6 -9 -3 -11 7 -280 -46 -376
-74 -38 -11 -78 -22 -87 -24 -74 -18 -314 -112 -453 -177 -73 -34 -270 -144
-340 -189 -33 -22 -69 -43 -80 -49 -11 -5 -30 -19 -42 -30 -12 -12 -26 -21
-30 -21 -4 0 -19 -9 -33 -20 -14 -11 -43 -34 -65 -51 -171 -130 -375 -321
-496 -464 -19 -22 -42 -49 -52 -60 -73 -80 -327 -447 -327 -472 0 -2 -9 -17
-20 -33 -11 -15 -17 -30 -13 -34 3 -3 2 -6 -4 -6 -5 0 -24 -31 -42 -68 -17
-38 -34 -72 -39 -76 -4 -4 -7 -11 -8 -14 0 -4 -11 -29 -23 -57 -23 -51 -38
-86 -61 -140 -43 -103 -134 -396 -146 -472 -3 -21 -8 -41 -10 -44 -2 -3 -6
-21 -9 -40 -3 -19 -10 -56 -15 -84 -15 -82 -27 -173 -34 -262 -2 -28 -6 -55
-9 -59 -6 -11 -1 -547 6 -589 3 -16 8 -55 11 -85 8 -78 44 -284 61 -355 9 -33
17 -69 19 -80 2 -11 9 -33 16 -50 6 -16 11 -31 10 -33 -5 -9 116 -347 140
-390 5 -9 30 -60 54 -112 56 -118 107 -213 121 -222 5 -4 6 -8 2 -8 -4 0 -3
-6 3 -12 5 -7 42 -62 81 -123 39 -60 76 -111 80 -113 5 -2 9 -8 9 -14 0 -12
62 -87 124 -151 95 -99 348 -390 436 -502 65 -84 79 -102 124 -160 25 -33 50
-66 57 -73 31 -36 199 -282 199 -291 0 -6 5 -11 10 -11 6 0 10 -4 10 -9 0 -5
15 -32 33 -60 17 -28 44 -70 58 -94 43 -68 122 -226 158 -312 19 -44 39 -93
46 -110 15 -36 62 -184 70 -220 3 -14 7 -37 10 -52 3 -16 8 -35 11 -43 3 -8 8
-33 10 -55 2 -22 7 -53 9 -70 3 -16 7 -79 10 -140 6 -113 14 -153 47 -217 36
-68 124 -137 203 -160 59 -16 2092 -18 2158 -2 66 17 128 55 175 109 67 76 80
117 87 283 5 96 20 226 31 264 3 9 6 25 8 35 2 10 10 38 17 63 17 60 17 62 22
85 21 91 169 419 240 532 15 24 27 47 27 52 0 5 4 11 8 13 4 2 25 32 47 68 21
36 51 81 67 101 15 20 28 40 28 44 0 6 16 28 60 82 6 7 10 14 10 17 0 5 153
209 174 233 6 6 24 30 40 52 17 23 33 41 38 41 4 0 8 5 8 10 0 6 8 19 18 29 9
11 28 33 42 50 14 18 37 45 51 61 14 16 44 50 65 76 21 26 50 59 64 74 42 46
164 182 183 204 10 12 38 42 61 67 24 26 85 109 135 185 50 77 95 144 99 150
36 52 212 408 212 429 0 3 8 24 19 48 31 70 104 292 115 351 2 12 9 33 14 47
6 15 9 29 6 32 -2 2 0 15 5 29 5 14 12 40 15 59 3 19 8 45 11 59 3 14 8 43 10
65 3 22 7 51 10 65 19 84 29 259 28 500 0 220 -4 297 -18 410 -3 19 -8 58 -11
85 -4 28 -8 53 -11 58 -2 4 -6 24 -8 45 -3 20 -7 48 -10 62 -3 14 -8 36 -11
50 -3 14 -10 43 -16 65 -5 22 -12 47 -13 55 -37 163 -121 391 -222 599 -61
127 -191 354 -204 359 -5 2 -9 8 -9 13 0 11 -100 155 -129 186 -12 12 -21 25
-21 29 0 7 -74 97 -153 188 -43 48 -186 191 -284 283 -95 90 -357 279 -517
373 -98 57 -316 171 -316 165 0 -3 -15 3 -32 13 -18 10 -60 29 -93 41 -73 28
-105 41 -125 51 -9 4 -31 11 -50 15 -19 4 -41 12 -47 17 -7 6 -13 8 -13 4 0
-3 -12 -1 -27 5 -30 12 -244 69 -278 74 -11 2 -29 5 -40 8 -11 3 -51 10 -90
16 -38 6 -86 13 -105 16 -118 19 -242 27 -442 29 -98 2 -179 2 -180 1z"/>
<path d="M4245 2020 c-33 -16 -70 -41 -82 -55 -12 -14 -27 -25 -33 -25 -5 0
-10 -7 -10 -15 0 -8 -3 -15 -8 -15 -4 0 -18 -24 -31 -52 -29 -63 -38 -158 -22
-225 28 -108 140 -217 248 -240 36 -8 2097 -8 2140 -1 86 16 185 94 231 183
21 41 27 66 28 135 2 75 -1 92 -25 143 -36 76 -113 149 -185 176 -56 21 -64
21 -1124 21 l-1067 -1 -60 -29z"/>
<path d="M4050 691 c0 -68 54 -182 119 -249 69 -72 279 -212 318 -212 7 0 13
-5 13 -12 0 -6 3 -8 6 -5 4 3 16 2 26 -4 25 -13 146 -59 172 -64 10 -3 44 -12
75 -21 31 -9 69 -18 85 -20 15 -2 36 -6 46 -9 10 -3 35 -8 56 -11 22 -2 53 -6
69 -9 97 -14 168 -18 325 -18 161 -1 366 10 382 19 3 2 27 7 51 9 42 5 54 8
110 20 12 3 34 7 48 10 117 21 374 130 498 210 73 47 191 159 191 181 0 8 4
14 9 14 14 0 52 97 58 150 l6 49 -1332 -1 -1331 0 0 -27z"/>
</g>
</svg>
